<svg xmlns="http://www.w3.org/2000/svg" viewBox="0 0 24 24" width="24" height="24">
  <path d="M23.766 12.2764c0-.4714-.039-.9285-.116-1.3714h-11.59v2.5997h6.645c-.287 1.5534-1.158 2.8697-2.467 3.7585v3.1246h3.99c2.334-2.1508 3.678-5.3216 3.678-8.1114z" fill="#4285F4"/>
  <path d="M12.06 23.9014c3.33 0 6.118-1.1014 8.155-2.9714l-3.99-3.1246c-1.106.7428-2.516 1.1797-4.165 1.1797-3.204 0-5.914-2.1643-6.877-5.0826H1.06v3.2246c2.02 4.0096 6.177 6.7743 11 6.7743z" fill="#34A853"/>
  <path d="M5.183 13.9015c-.247-.7428-.387-1.537-.387-2.3515s.14-1.6087.387-2.3515V6.0239H1.06A11.9678 11.9678 0 0 0 0 12.0015c0 1.9872.476 3.8677 1.06 5.5246l4.123-3.1246z" fill="#FBBC04"/>
  <path d="M12.06 4.5768c1.807 0 3.424.6214 4.705 1.8413l3.534-3.5341C18.203 1.1288 15.415 0 12.06 0 7.237 0 3.08 2.7647 1.06 6.7743l4.123 3.2246c.963-2.9183 3.673-5.0826 6.877-5.0826z" fill="#EA4335"/>
</svg> 